<svg xmlns="http://www.w3.org/2000/svg" xmlns:xlink="http://www.w3.org/1999/xlink" width="40.321" height="40.321" viewBox="0 0 40.321 40.321"><defs><clipPath id="a"><path d="M0,0H40.321V40.321H0Z" fill="#fff" stroke="#fff" stroke-linecap="round" stroke-linejoin="round" stroke-width="1"/></clipPath></defs><g transform="translate(40.321 40.321) rotate(180)" clip-path="url(#a)"><g transform="translate(3.36 8.4)" fill="#fff" stroke-linecap="round" stroke-linejoin="round"><path d="M 12.27710437774658 22.31136703491211 L 12.27710437774658 18.48048782348633 L 12.27710437774658 17.98048782348633 L 11.77710437774658 17.98048782348633 L 0.5000041127204895 17.98048782348633 L 0.5000041127204895 15.62039852142334 L 11.77710437774658 15.62039852142334 L 12.27710437774658 15.62039852142334 L 12.27710437774658 15.12039852142334 L 12.27710437774658 11.28950881958008 L 17.77425765991211 16.80043792724609 L 12.27710437774658 22.31136703491211 Z M 21.32376480102539 12.23110771179199 L 15.82661151885986 6.720178127288818 L 21.32376480102539 1.209248542785645 L 21.32376480102539 5.040128231048584 L 21.32376480102539 5.540128231048584 L 21.82376480102539 5.540128231048584 L 33.10086441040039 5.540128231048584 L 33.10086441040039 7.900218486785889 L 21.82376480102539 7.900218486785889 L 21.32376480102539 7.900218486785889 L 21.32376480102539 8.40021800994873 L 21.32376480102539 12.23110771179199 Z" stroke="none"/><path d="M 12.77710437774658 21.10212707519531 L 17.06803894042969 16.80043792724609 L 12.77710437774658 12.49874877929688 L 12.77710437774658 15.12039852142334 C 12.77710437774658 15.67267799377441 12.32938385009766 16.12039756774902 11.77710437774658 16.12039756774902 L 1.000004053115845 16.12039756774902 L 1.000004053115845 17.48048782348633 L 11.77710437774658 17.48048782348633 C 12.32938385009766 17.48048782348633 12.77710437774658 17.92820739746094 12.77710437774658 18.48048782348633 L 12.77710437774658 21.10212707519531 M 20.82376480102539 11.0218677520752 L 20.82376480102539 8.40021800994873 C 20.82376480102539 7.847938060760498 21.271484375 7.400218486785889 21.82376480102539 7.400218486785889 L 32.60086441040039 7.400218486785889 L 32.60086441040039 6.040128231048584 L 21.82376480102539 6.040128231048584 C 21.271484375 6.040128231048584 20.82376480102539 5.592408180236816 20.82376480102539 5.040128231048584 L 20.82376480102539 2.418488740921021 L 16.53282928466797 6.720178127288818 L 20.82376480102539 11.0218677520752 M 11.77710437774658 23.5206184387207 L 11.77710437774658 18.48048782348633 L 4.112549049750669e-06 18.48048782348633 L 4.112549049750669e-06 15.12039852142334 L 11.77710437774658 15.12039852142334 L 11.77710437774658 10.0802583694458 L 18.48048400878906 16.80043792724609 L 11.77710437774658 23.5206184387207 Z M 21.82376480102539 13.44035816192627 L 15.12038421630859 6.720178127288818 L 21.82376480102539 -1.734313968881906e-06 L 21.82376480102539 5.040128231048584 L 33.60086441040039 5.040128231048584 L 33.60086441040039 8.40021800994873 L 21.82376480102539 8.40021800994873 L 21.82376480102539 13.44035816192627 Z" stroke="none" fill="#fff"/></g></g></svg>