<svg xmlns="http://www.w3.org/2000/svg" width="24.083" height="24.083" viewBox="0 0 24.083 24.083"><g transform="translate(-102 -44)"><g transform="translate(102 44)"><path d="M12.817,15.827a3.01,3.01,0,1,0-3.01-3.01A3.01,3.01,0,0,0,12.817,15.827Zm4.817-3.01A4.817,4.817,0,1,1,12.817,8a4.9,4.9,0,0,1,4.719,3.846A4.11,4.11,0,0,1,17.633,12.817Z" transform="translate(-0.775 -0.775)" fill="#fff" fill-rule="evenodd"/><path d="M12.631,3.016,12.17,4.289A4.294,4.294,0,0,1,10.03,6.58q-.114.059-.227.12A4.869,4.869,0,0,1,6.57,7.26L5.138,6.99a.617.617,0,0,0-.635.263L3.763,8.43a.513.513,0,0,0,.07.637L4.8,10.073a3.958,3.958,0,0,1,1.091,2.846q0,.122,0,.245A3.958,3.958,0,0,1,4.8,16.009l-.971,1.006a.513.513,0,0,0-.07.637L4.5,18.83a.617.617,0,0,0,.635.263l1.432-.269a4.87,4.87,0,0,1,3.234.559q.112.062.227.121a4.293,4.293,0,0,1,2.139,2.291l.462,1.273a.594.594,0,0,0,.565.374h1.48a.594.594,0,0,0,.565-.374l.462-1.273A4.294,4.294,0,0,1,17.843,19.5q.115-.059.227-.121a4.87,4.87,0,0,1,3.234-.559l1.432.269a.617.617,0,0,0,.636-.263l.74-1.177a.513.513,0,0,0-.07-.637l-.971-1.006a3.957,3.957,0,0,1-1.091-2.846q0-.122,0-.245a3.957,3.957,0,0,1,1.091-2.846l.971-1.006a.513.513,0,0,0,.07-.637l-.74-1.177a.617.617,0,0,0-.636-.263L21.3,7.26A4.869,4.869,0,0,1,18.069,6.7q-.112-.062-.227-.12A4.294,4.294,0,0,1,15.7,4.289l-.462-1.273a.594.594,0,0,0-.565-.374H13.2A.594.594,0,0,0,12.631,3.016Zm-2.158.753A2.609,2.609,0,0,1,9.161,5.146q-.14.072-.277.147a2.953,2.953,0,0,1-1.955.358L5.5,5.382a2.466,2.466,0,0,0-2.542,1.05l-.74,1.177A2.051,2.051,0,0,0,2.5,10.157l.971,1.006a2.4,2.4,0,0,1,.641,1.73q0,.148,0,.3a2.4,2.4,0,0,1-.641,1.73L2.5,15.926a2.051,2.051,0,0,0-.281,2.547l.74,1.177A2.466,2.466,0,0,0,5.5,20.7l1.432-.269a2.953,2.953,0,0,1,1.955.358q.137.076.277.147a2.61,2.61,0,0,1,1.313,1.376l.462,1.273a2.375,2.375,0,0,0,2.261,1.5h1.48a2.375,2.375,0,0,0,2.261-1.5l.462-1.273a2.61,2.61,0,0,1,1.313-1.376q.14-.072.277-.147a2.953,2.953,0,0,1,1.955-.358l1.432.269a2.466,2.466,0,0,0,2.542-1.05l.74-1.177a2.051,2.051,0,0,0-.281-2.547l-.971-1.006a2.4,2.4,0,0,1-.641-1.73q0-.148,0-.3a2.4,2.4,0,0,1,.641-1.73l.971-1.006a2.051,2.051,0,0,0,.281-2.547l-.74-1.177a2.466,2.466,0,0,0-2.542-1.05l-1.432.269a2.953,2.953,0,0,1-1.955-.358q-.137-.076-.277-.147A2.61,2.61,0,0,1,17.4,3.77L16.938,2.5A2.375,2.375,0,0,0,14.677,1H13.2a2.375,2.375,0,0,0-2.261,1.5Z" transform="translate(-1.895 -1)" fill="#fff" fill-rule="evenodd"/></g></g></svg>